Patient4_TMGait_0pt6_01_right_44_EMG.mot
version=1
nRows=40
nColumns=33
inDegrees=no
endheader
time	1LAddLong	2LGlutMax	3LGlutMed	4LIliopsoas	5LSemiMemb	6LBicFemLong	7LRecFem	8LVastMed	9LVastLat	10LGasMed	11LTibAnt	12lTibPost	13LPeroneusLong	14LSol	15LExtDigLong	16LFlexDigLong	17RAddLong	18RGlutMax	19RGlutMed	20RIliopsoas	21RSemiMemb	22RBicFemLong	23RRecFem	24RVastMed	25RVastLat	26RGasMed	27RTibAnt	28RTibPost	29RPeroneusLong	30RSol	31RExtDigLong	32RFlexDigLong
53.755	-0.003052	0.28351	-0.00412	0.006256	-0.072784	0.097809	0.021362	-0.024719	0.12436	0.030518	-0.017853	0.008087	0.038605	-0.10925	-0.22186	0.006409	-0.033569	-0.092316	0.16571	0.075378	0.13519	-0.095978	-0.22492	0.018311	-0.003815	-0.028534	0.045929	-0.083923	0.032196	0.85602	-0.000916	-0.010834
53.756	-0.018311	0.31555	-0.010834	-0.001678	-0.096283	0.06134	0.025177	-0.031281	0.12909	0.018768	-0.11246	0.018463	0.054626	-0.070801	-0.20081	-0.002289	-0.011139	-0.096893	0.076141	0.074615	0.21316	-0.30411	-0.21378	0.033112	-0.001984	0.015411	0.057678	0.055847	0.008392	1.0976	-0.001831	-0.009003
53.757	-0.009308	0.36331	0.002594	0.006561	-0.012207	-0.027466	0.017242	-0.027771	0.15488	0.030823	-0.11887	0.02182	0.058899	-0.03006	-0.16281	-0.004425	0.022736	-0.10605	0.08316	0.004425	0.15915	-0.32654	-0.24857	-0.001678	0.022888	0.016479	0.11322	-0.014038	-0.38803	0.96695	-0.00061	-0.011597
53.758	-0.001678	0.39124	-0.011597	0.001526	0.04303	-0.14969	0.070496	-0.025482	0.15213	0.028992	-0.11932	0.021057	0.067291	-0.044708	-0.17136	-0.00824	0.02243	-0.051117	0.13733	-0.009155	-0.02533	-0.15839	-0.23285	-0.010529	0.023041	0.023499	0.091858	-0.049286	-0.48813	0.85632	0.000763	-0.002136
53.759	-0.007324	0.41748	-0.005035	0.014954	0.026703	-0.18433	0.13321	-0.010376	0.073547	0.016174	-0.097809	0.01709	0.059357	-0.071411	-0.23621	-0.015106	0.000458	-0.10651	0.13809	0.025482	-0.32349	-0.10025	-0.26535	0.021057	0.051575	-0.002441	0.046082	-0.008545	0.021973	0.29159	0.000305	0.007782
53.76	-0.007172	0.44983	-0.02533	-0.002899	-0.078583	-0.32074	0.15366	-0.017548	-0.091858	0.020905	-0.025024	0.022278	0.037689	-0.045624	-0.12802	0.001984	0.014801	-0.1355	0.13077	0.076752	-0.047302	-0.1564	-0.26504	0.023041	0.037994	-0.027771	-0.029755	0.005341	0.028076	-0.46539	-0.001831	0.005951
53.761	-0.023193	0.40985	-0.036469	-0.018921	-0.17014	-0.29511	0.17624	-0.013428	-0.23712	0.00351	0.006409	0.006409	0.018616	-0.06134	-0.039368	-0.002136	0.021515	-0.15945	0.15167	0.060577	0.032043	-0.1181	-0.22751	-0.030212	0.031128	-0.066528	-0.09552	-0.27313	0.10773	-1.1356	-0.002289	-0.003357
53.762	-0.023804	0.43198	-0.027924	0.001831	-0.21194	-0.18692	0.18951	-0.014648	-0.23987	0.009766	0.027161	0.015106	-0.041962	-0.040436	0.068207	0.008087	0.026398	-0.17014	0.20004	-0.015411	0.038452	-0.021515	-0.26535	-0.011902	0.005951	-0.071411	-0.12253	-0.25971	0.13504	-1.6428	-0.001831	-0.001526
53.763	-0.00946	0.47134	-0.036163	0.007629	-0.078583	-0.14511	0.22598	-0.014801	-0.17685	0.016937	0.015717	0.023041	-0.041199	-0.019226	0.14404	-0.001831	0.036621	-0.10559	0.28702	0.011292	0.069733	-0.044861	-0.24078	-0.052338	0.018005	-0.077667	-0.020294	0.086365	0.064392	-1.593	-0.003357	-0.007019
53.764	0.010681	0.46616	-0.030518	0.013733	0.084076	-0.15976	0.24612	-0.022888	-0.11993	0.009308	0.034332	0.016937	-0.007935	-0.002441	0.14877	-0.000763	0.016479	-0.091553	0.041046	0.016479	0.025177	-0.10529	-0.25711	-0.054016	0.002441	-0.10025	0.14938	0.3122	-0.34241	-1.0133	0.00061	-0.012817
53.765	0.016479	0.46432	-0.005493	0.030212	0.10742	-0.087585	0.19424	-0.021515	-0.073853	0.011902	0.041504	0.01709	0.00824	-0.008087	0.13641	0.001526	0.001526	-0.17609	0.028229	-0.002594	-0.021973	-0.20813	-0.24841	-0.033112	0.010071	-0.030975	0.14648	0.2742	-0.33447	-0.26566	-0.00061	-0.007935
53.766	0.027924	0.52399	0.020294	0.016785	0.12222	-0.045776	0.084076	-0.02182	-0.00412	0.020905	0.009308	0.013885	-0.0177	-0.000458	0.12665	0.007324	-0.030823	-0.23727	-0.001373	-0.001068	0.043182	-0.18738	-0.25711	-0.063324	-0.002747	0.066223	0.029602	0.14328	-0.13321	0.10788	0.00061	-0.015717
53.767	0.027161	0.52933	0.030365	0.00824	0.19333	-0.017548	-0.022736	-0.009155	0.074768	0.025635	0.003204	0.037537	-0.049896	0.007019	0.12497	0.003662	-0.004578	-0.24353	0.25406	-0.050659	0.11444	-0.068359	-0.25238	-0.084839	-0.022888	0.15015	-0.050354	0.045319	0.037842	0.67734	-0.007935	-0.010376
53.768	0.026245	0.43991	0.036163	0.024414	0.15533	0.003662	-0.090027	0.001373	0.1506	0.02533	-0.006866	0.023804	-0.061188	0.020599	0.11932	-0.002747	0.033264	-0.33951	0.43015	-0.020447	0.006866	-0.067444	-0.24475	-0.087128	-0.057373	0.079041	-0.066223	0.002441	0.082092	0.40085	-0.001831	-0.001678
53.769	0.027924	0.39352	0.057373	0.028076	0.07431	-0.012665	-0.12024	0.016327	0.18951	0.038605	0.009155	0.022125	-0.066986	0.036774	0.10788	-0.002136	0.058594	-0.31845	0.061188	0.066376	-0.075378	-0.098724	-0.27878	-0.047302	-0.063171	-0.098572	0.00824	-0.007019	-0.070496	-0.47684	-0.001831	-0.012207
53.77	0.031586	0.34103	0.060272	0.016632	0.055084	-0.028381	-0.1239	0.011444	0.22064	0.015411	0.014954	0.016632	-0.074158	0.034027	0.080719	0.002441	0.076447	-0.29923	0.074463	0.11414	-0.01358	-0.10773	-0.32135	-0.011749	-0.026245	-0.12665	-0.003052	0.024414	0.1326	-1.1464	-0.001373	-0.012054
53.771	0.023804	0.33783	0.055847	0.001831	0.050354	-0.01709	-0.12299	0.012817	0.23468	0.020447	0.014801	0.000305	-0.060883	0.029907	0.062561	0.00061	0.055237	-0.28015	-0.055542	0.091553	0.012817	-0.033264	-0.33981	0.050354	-0.026703	-0.18158	-0.026398	-0.012817	-0.1767	-1.4464	-0.003662	-0.019226
53.772	0.034027	0.26276	0.070801	0.005188	0.036469	-0.015259	-0.095978	0.011902	0.16296	0.020294	0.016937	0.003815	-0.057526	0.047302	0.050812	0.007629	0.055847	-0.33844	-0.005798	0.046692	-0.010376	0.00061	-0.28336	0.080261	-0.006104	-0.12772	-0.006561	-0.60272	-0.32638	-1.1719	-0.001984	-0.018463
53.773	0.021667	0.27649	0.074005	0.010834	-0.046387	0.021057	-0.026855	0.006866	-0.077209	0.031281	0.009766	0.013275	-0.049286	0.055695	0.049438	0.003815	0.099487	-0.26352	0.15488	-0.10788	0.13001	0.032043	-0.29053	0.01358	0.046082	-0.046997	-0.010223	-0.61996	-0.10864	0.10712	-0.002289	-0.016937
53.774	-0.003357	0.30182	0.045929	0.001068	-0.078278	0.003052	0.000153	-0.004883	-0.24963	0.032349	0.013885	0.00946	-0.054169	0.064545	0.026093	0.004272	0.10422	-0.23804	0.27298	-0.16586	0.25421	-0.016327	-0.29022	0.005188	0.060425	-0.041504	-0.020599	0.27557	0.10147	1.2199	-0.001831	-0.020142
53.775	0.008698	0.31525	0.046082	-0.006256	-0.003357	-0.025177	-0.009613	0.001373	-0.26947	0.036774	0.011292	0.011444	-0.040283	0.076141	0.020142	0.005035	0.074921	-0.24078	0.22064	-0.069122	0.13184	0.00061	-0.32013	-0.019531	0.025635	-0.0177	0.031433	0.61966	0.093842	1.6576	0.003204	-0.017548
53.776	-0.002594	0.31097	0.012665	-0.009766	0.023041	0.00885	0.001984	0.007172	-0.19867	0.035248	0.00885	0.010986	-0.054016	0.053253	0.011139	0.011749	0.013733	-0.23895	-0.17685	0.03891	0.033112	0.001984	-0.32913	-0.053101	0	-0.014343	0.071716	0.34393	0.1973	1.2422	-0.001678	-0.0177
53.777	-0.004578	0.29892	-0.010376	0.027618	0.063629	0.074768	-0.007629	0.008087	-0.09491	0.032806	-0.019836	0.01709	-0.062103	0.062103	0.010681	0.005951	-0.066528	-0.18112	-0.13229	0.13519	-0.07782	-0.008698	-0.31845	-0.009308	-0.010071	-0.016937	0.11551	0.11475	0.44449	1.1304	-0.002747	-0.018311
53.778	0.002747	0.2858	-0.039673	0.015259	0.059509	0.10819	-0.019531	0.005188	0.025635	0.035553	0.001831	0.018311	-0.067139	0.054779	0.013733	0.010529	-0.078735	-0.20477	-0.13489	0.10651	-0.022583	-0.13046	-0.31433	0.023346	-0.004578	0.043335	0.082092	0.023956	0.47073	0.63492	-0.001678	-0.00946
53.779	-0.001068	0.27084	-0.056763	-0.000916	0.040131	0.14847	0.029907	-0.005951	0.013275	0.034943	0.050049	0.01236	-0.066681	0.054169	0.00351	0.011444	-0.082855	-0.12665	0.35858	-0.042572	0.11215	-0.23712	-0.31906	0.038452	-0.021362	0.079803	0.019073	-0.02533	0.37582	0.18509	0.003052	-0.012512
53.78	0.00473	0.2803	-0.06134	0.001526	0.031281	0.060577	0.052795	-0.001678	-0.03006	0.036926	-0.000305	0.009308	-0.063629	0.054321	-0.002441	0.011597	-0.096588	-0.1471	0.6842	-0.086823	0.096436	-0.1033	-0.31921	0.028534	-0.012207	0.093231	-0.028076	-0.044556	0.34347	-0.061646	-0.001984	-0.007477
53.781	-0.002747	0.24918	-0.070496	0.017395	0.011749	0.07019	0.05188	0.004272	-0.016785	0.052795	0.016632	0.014648	-0.06958	0.049438	0.002441	0.008698	-0.099335	-0.19714	0.70129	0.005646	-0.005951	-0.084534	-0.34851	0.032959	0.001678	0.031128	-0.021667	-0.048676	-0.001068	-0.10147	-0.004272	-0.023193
53.782	-0.007477	0.21149	-0.086975	0.023499	-0.003204	0.06897	0.03479	0.006561	0.029297	0.057373	0.008087	0.011902	-0.05661	0.037537	0.003204	0.006714	-0.077667	-0.22644	-0.13382	-0.008545	-0.17853	-0.10605	-0.34119	0.031128	-0.000153	0.063171	0.043182	-0.065155	-0.72174	0.23102	-0.006256	-0.026855
53.783	0.00412	0.22659	-0.079041	0.019073	0.027161	0.010071	0.007782	0.005493	0.049133	0.055389	0.022736	0.010834	-0.056	0.037689	0.000763	0.012665	-0.061951	-0.16251	-0.33173	-0.073242	0.009308	-0.20004	-0.34409	-0.02243	-0.0177	0.064392	-0.02655	-0.061493	-1.0213	0.61432	0.001373	-0.021667
53.784	0.024414	0.21805	-0.058136	0.012512	0.016479	-0.093231	0.009155	0.009155	0.04425	0.059662	0.022583	0.01358	-0.052338	0.035095	-0.000305	0.018616	-0.052185	-0.16129	-0.031891	-0.001373	0.071106	-0.20493	-0.3273	-0.06546	-0.007172	0.066376	-0.063934	-0.030212	-1.026	0.13779	-0.002441	-0.003967
53.785	0.003815	0.15793	-0.052338	-0.002747	0.02655	-0.16098	0.053711	0.005951	0.005798	0.053711	0.018005	0.015106	-0.053406	0.031281	-0.004578	0.014801	0.002747	-0.16602	-0.067596	0.097198	0.094452	0.000153	-0.33493	-0.095367	-0.021973	0.095367	-0.067444	-0.03067	-0.68756	0.12283	-0.000458	-0.00885
53.786	0.005951	0.20325	-0.050812	0.011597	0.028076	-0.13443	0.072327	0.012054	-0.006256	0.026245	0.015869	0.022125	-0.059967	0.043488	0.001526	0.010376	0.022278	-0.12955	-0.10696	0.006866	-0.014648	0.16708	-0.27603	-0.10941	-0.02121	0.026703	-0.048065	-0.10056	-0.38513	0.039673	-0.005188	-0.015869
53.787	0.004425	0.20203	-0.023956	-0.013885	-0.026703	-0.28259	0.074158	0.015259	-0.009003	0.10071	0.013123	0.026245	-0.060272	0.019989	-0.006714	0.005951	0.022278	-0.15518	-0.0737	-0.078583	-0.22247	0.24902	-0.32394	-0.018158	0.001373	-0.047302	0.023804	-0.25971	-0.14038	-0.50583	-0.001221	-0.024872
53.788	0.005798	0.18768	-0.021515	0.006866	-0.041809	-0.39703	0.080566	0.01358	0.071716	0.043945	0.015411	0.029297	-0.048218	0.032806	0.00885	0.010223	0.019836	-0.21271	0.071869	-0.17441	-0.20706	0.2301	-0.34225	0.018768	0.004578	-0.053864	-0.010376	-0.058746	0.2272	-0.30838	0.000916	-0.01709
53.789	-0.001526	0.15701	-0.006714	0.014801	-0.037231	-0.3125	0.09903	0.014343	0.11688	0.08255	0.010529	0.037994	-0.040894	0.015869	0.000916	0.006409	0.032043	-0.2182	-0.024719	-0.1651	-0.16525	0.17227	-0.37048	0.014801	0.034943	-0.036621	-0.012512	-0.10422	0.34195	0.44235	0.004883	-0.036316
53.79	-0.000916	0.1297	0.002289	0.039215	-0.045166	-0.17548	-0.022125	0.004272	0.26871	0.063171	0.009613	0.043945	-0.072174	0.02182	0.005951	0.011597	0.039368	-0.23254	-0.004272	-0.12054	-0.14618	-0.034332	-0.36194	0.04303	0.004272	-0.011292	0.002747	-0.23636	0.69565	1.3489	0.000153	-0.032806
53.791	0.005188	0.14023	0.005493	0.03418	-0.072021	-0.11597	-0.16892	-0.000916	0.44571	0.10422	0.016937	0.046539	-0.19028	0.018005	0.012207	0.004272	0.025024	-0.10712	-0.077972	-0.1471	0.02182	-0.29907	-0.39566	0.074158	0.015411	0.001068	0.041046	-0.12573	0.46677	1.5515	0.001831	-0.036011
53.792	-0.006409	0.12482	0.000916	0.014191	-0.076294	0.016174	-0.14725	0.013123	0.46295	0.11322	0.018616	0.061646	-0.11963	0.027313	0.002594	-0.006561	0.00824	-0.13168	-0.20203	-0.17487	0.010223	-0.30075	-0.35049	0	-0.025177	0.015411	0.025024	0.52399	0.35355	0.64255	-0.001221	-0.037842
53.793	-0.004578	0.092773	0.011292	0.006409	-0.088348	0.058746	-0.13626	0.013275	0.50201	0.11765	0.009308	0.07019	0.4863	0.043945	-0.00946	0.008087	-0.072937	-0.17151	-0.23773	-0.049591	-0.083771	-0.048218	-0.28351	-0.007935	-0.040588	0.037079	0.029755	0.2655	-0.034637	-0.079041	0.006409	-0.039368
53.794	-0.006256	0.082703	0.023804	-0.006409	-0.06073	0.15961	-0.011444	0.037384	0.43182	0.14465	-0.007935	0.082855	0.10956	0.056305	-0.002747	-0.006256	-0.10483	-0.15167	-0.12573	0.069427	-0.003662	0.066986	-0.35599	0.036316	-0.020905	0.043488	-0.010834	-0.064545	-0.21683	-0.50461	0.007629	-0.02182
